<svg xmlns="http://www.w3.org/2000/svg" xmlns:xlink="http://www.w3.org/1999/xlink" id="Warstwa_1" x="0" y="0" version="1.1" viewBox="0 0 1083.9 256.5" xml:space="preserve"><style>.st0{fill:#fff}.st1{fill:#05c5d1}</style><path d="M84.5 116.6l-1.1 14c-27.1-36.9-86-9.4-83.2 35.8-3.8 42.9 55.6 73.4 83.1 36 6.2 32.6-42.5 44.4-60.7 24.1L7.1 239.3c27.1 32.7 99.6 16.8 96.3-31.7v-91H84.5zm-32.2 82.6c-42.1.7-41.2-66.8-.1-65.8 39.8-1.8 41 67.3.1 65.8zM142.9 132.2l-1.2-15.6h-18.9v99.5H143c-.3-30.9-6.3-86.9 34.5-81.6l3.3-21.9c-13.2.1-28.1 5.3-37.9 19.6zM280.7 162.3c.6-66-98.8-63.3-97.8 4.1-1 48.4 57.8 70.6 90.7 36.3L260 189.3c-19.7 18.7-50.7 11.2-56.6-14.9h75v-.1l.3.1c1.4-3.9 2.1-8 2-12.1zm-47-29.3c15.9 0 25.3 11.4 27.3 25.7h-57.9c3.1-15.3 15.4-25.7 30.6-25.7zM393.5 162.3c.6-66-98.8-63.3-97.8 4.1-1 48.4 57.8 70.6 90.7 36.3l-13.6-13.4c-19.7 18.7-50.8 11.2-56.6-14.9h75v-.1l.3.1c1.4-3.9 2-7.9 2-12.1zm-47-29.3c15.9 0 25.3 11.4 27.3 25.7H316c3-15.3 15.2-25.7 30.5-25.7zM461.4 114.2c-13 0-23.7 5.1-31 14.1l-.9-11.6h-18.9v99.5h20.1c2.8-21.1-11.8-85.6 24.2-82.7 34.8-4.2 20.1 62.5 23.1 82.7h20.1c-.6-34.2 9.5-106.5-36.7-102z" class="st0"/><path d="M594 132.2l-1.2-15.6H574v99.5h20.1c-.3-30.9-6.3-86.9 34.5-81.6l3.3-21.9c-13.2.1-28.1 5.3-37.9 19.6zM655.9 102.5c15.5.2 15.5-24 0-23.7-15.5-.3-15.5 23.9 0 23.7zm-10.1 113.6H666v-99.5h-20.2v99.5z" class="st1"/><path d="M927 162.3c.6-66-98.8-63.3-97.8 4.1-1 48.4 57.8 70.6 90.7 36.3l-13.6-13.4c-19.7 18.7-50.7 11.2-56.6-14.9h74.9v-.1l.3.1c1.5-3.9 2.2-7.9 2.1-12.1zM880 133c15.9 0 25.3 11.4 27.3 25.7h-57.9c3-15.3 15.3-25.7 30.6-25.7zM964.2 132.2l-1.2-15.6h-18.9v99.5h20.1c-.3-30.9-6.3-86.9 34.5-81.6l3.3-21.9c-13.2.1-28.1 5.3-37.8 19.6zM1045.6 219.5c43.3-.2 54.6-49 9-61.9-12.4-5.1-21.6-8.1-21.6-15.3 2-14.3 28.3-10.8 34.3.9l13.9-11.5c-11-27.2-69.2-22.8-68.3 10.7-.9 30.9 46.5 26.9 51.4 46.2-3.7 19.4-38.4 11.1-44.7-2.3l-11.4 13c5.3 10.7 19.7 20.2 37.4 20.2z" class="st0"/><path d="M886.1 0l-26.3 33.3-67.1 14.4c-3.3.7-6 2.9-7.3 6l-57.1 133.4-27.6-70.7h-22.1l38.9 99.7h20.7l64-149.6 65.5-14.1c2.3-.5 4.4-1.8 5.9-3.7L912.3 0h-26.2z" class="st1"/><path d="M943.1 0l-52.5 67.5L823.5 82c-3.3.7-6 2.9-7.3 6l-54.9 128.1h22.4l49.4-115.3 65.5-14.1c2.3-.5 4.4-1.8 5.9-3.7l64.8-83h-26.2z" class="st1"/></svg>